<svg xmlns="http://www.w3.org/2000/svg" width="30mm" height="20mm" viewBox="0 0 3000 2000" xmlns:xlink="http://www.w3.org/1999/xlink" shape-rendering="geometricPrecision" text-rendering="geometricPrecision" image-rendering="optimizeQuality" fill-rule="evenodd" clip-rule="evenodd"><defs><clipPath id="a"><path d="M938 441.95h1124v1116.1H938z"/></clipPath></defs><path d="M2848.55 498.74h-225.74V341.19h225.74v157.55zm0 301.45h-225.74V642.75h225.74v157.44zm0 301.56h-225.74V944.3h225.74v157.45zm0 301.41h-225.74v-157.37h225.74v157.37zm0 301.52h-225.74v-157.45h225.74v157.45zM371.87 498.74H146.16V341.19h225.71v157.55zm0 301.45H146.16V642.75h225.71v157.44zm0 301.56H146.16V944.3h225.71v157.45zm0 301.41H146.16v-157.37h225.71v157.37zm0 301.52H146.16v-157.45h225.71v157.45zM2848.55 60.1v137.02h-225.74V60.1H371.87v137.02H146.16V60.1H51.73v1879.81h94.43v-91.23h225.71v91.23h2250.94v-91.23h225.74v91.23h99.73V60.1h-99.73z" fill="#252422" fill-rule="nonzero"/><path d="M2486.19 1594.89c0 93.84-73.31 170.81-162.95 170.81H676.83c-89.64 0-163.02-76.97-163.02-170.81V405.11c0-93.91 73.38-170.81 163.02-170.81h1646.41c89.64 0 162.95 76.9 162.95 170.81v1189.78z" fill="#ffd109" fill-rule="nonzero"/><path d="M2108.26 976.51c-12.14-317.26-267.48-572.6-584.8-584.8v-54.68c347.41 12.24 627.27 292.06 639.48 639.48h-54.68zm-584.8 686.4v-54.65c317.32-12.21 572.66-267.55 584.8-584.84h54.68c-12.21 347.39-292.07 627.28-639.48 639.49zm0-639.49h537.95c-12.1 291.43-246.49 525.86-537.95 537.99v-537.99zm0-584.83c291.46 12.1 525.85 246.49 537.95 537.92h-537.95V438.59zm-46.85-46.88c-317.32 12.2-572.66 267.54-584.94 584.8h-54.61c12.24-347.42 292.06-627.24 639.55-639.48v54.68zm0 584.8H938.62c12.1-291.43 246.53-525.82 537.99-537.92v537.92zm0 584.9c-291.46-12.13-525.89-246.56-537.99-537.99h537.99v537.99zm0 101.5c-347.49-12.21-627.31-292.1-639.55-639.49h54.61c12.28 317.29 267.62 572.63 584.94 584.84v54.65zm1009.58-686.4h-276.37c-12.24-373.24-313.05-674.09-686.36-686.33V234.3h-46.85v55.88c-373.31 12.24-674.19 313.09-686.43 686.33H513.81v46.91h276.37c12.24 373.24 313.12 674.13 686.43 686.33v55.95h46.85v-55.95c373.31-12.2 674.12-313.09 686.36-686.33h276.37v-46.91z" fill="#323478" fill-rule="nonzero"/><g clip-path="url(#a)"><image x="938" y="441.96" width="1123.99" height="1116.09" xlink:href="лого эструктура_Images\лого эструктура_ImgID1.png"/></g></svg>