<svg width="30" height="30" viewBox="0 0 30 30" fill="none" xmlns="http://www.w3.org/2000/svg">
<path d="M18.4567 7.97435L18.4254 7.95474L14.4577 6L10.1752 11.71L12.1454 14.3372C12.0865 15.328 11.6663 16.2627 10.9645 16.9646C10.2626 17.6664 9.32786 18.0865 8.33708 18.1455L5.70993 16.1752L0 20.4576L1.93847 24.3921L1.95478 24.4254L1.97444 24.4567C2.07789 24.6234 2.22227 24.7608 2.39385 24.8559C2.56543 24.951 2.7585 25.0006 2.95467 25H3.97848C5.95114 25 7.90448 24.6115 9.72697 23.8565C11.5495 23.1016 13.2054 21.9952 14.6003 20.6003C15.9952 19.2054 17.1017 17.5494 17.8566 15.7269C18.6115 13.9044 19 11.9511 19 9.97843V8.95458C19.0006 8.75841 18.951 8.56535 18.8559 8.39377C18.7608 8.22218 18.6234 8.0778 18.4567 7.97435ZM17.5337 9.97843C17.5337 17.4529 11.4529 23.5337 3.97848 23.5337H3.15005L1.85306 20.9008L5.71021 18.0079L7.85766 19.6185H8.10202C9.56465 19.6168 10.9669 19.0351 12.0011 18.0008C13.0354 16.9666 13.6171 15.5643 13.6188 14.1017V13.8573L12.0082 11.7099L14.9008 7.85302L17.5337 9.15023V9.97843Z" fill="white"/>
</svg>
