<?xml version="1.0" encoding="UTF-8"?>
<!DOCTYPE svg PUBLIC "-//W3C//DTD SVG 1.1//EN" "http://www.w3.org/Graphics/SVG/1.1/DTD/svg11.dtd">
<!-- Creator: CorelDRAW 2018 (64-Bit) -->
<svg xmlns="http://www.w3.org/2000/svg" xml:space="preserve" width="30mm" height="20mm" version="1.1" style="shape-rendering:geometricPrecision; text-rendering:geometricPrecision; image-rendering:optimizeQuality; fill-rule:evenodd; clip-rule:evenodd"
viewBox="0 0 3000 2000"
 xmlns:xlink="http://www.w3.org/1999/xlink">
 <defs>
  <style type="text/css">
   <![CDATA[
    .fil1 {fill:#FFD109;fill-rule:nonzero}
    .fil0 {fill:#252422;fill-rule:nonzero}
    .fil2 {fill:#323478;fill-rule:nonzero}
   ]]>
  </style>
   <clipPath id="id0">
    <rect x="938" y="441.95" width="1124" height="1116.1"/>
   </clipPath>
 </defs>
 <g id="Слой_x0020_1">
  <metadata id="CorelCorpID_0Corel-Layer"/>
  <path class="fil0" d="M2848.55 498.74l-225.74 0 0 -157.55 225.74 0 0 157.55zm0 301.45l-225.74 0 0 -157.44 225.74 0 0 157.44zm0 301.56l-225.74 0 0 -157.45 225.74 0 0 157.45zm0 301.41l-225.74 0 0 -157.37 225.74 0 0 157.37zm0 301.52l-225.74 0 0 -157.45 225.74 0 0 157.45zm-2476.68 -1205.94l-225.71 0 0 -157.55 225.71 0 0 157.55zm0 301.45l-225.71 0 0 -157.44 225.71 0 0 157.44zm0 301.56l-225.71 0 0 -157.45 225.71 0 0 157.45zm0 301.41l-225.71 0 0 -157.37 225.71 0 0 157.37zm0 301.52l-225.71 0 0 -157.45 225.71 0 0 157.45zm2476.68 -1644.58l0 137.02 -225.74 0 0 -137.02 -2250.94 0 0 137.02 -225.71 0 0 -137.02 -94.43 0 0 1879.81 94.43 0 0 -91.23 225.71 0 0 91.23 2250.94 0 0 -91.23 225.74 0 0 91.23 99.73 0 0 -1879.81 -99.73 0z"/>
  <path class="fil1" d="M2486.19 1594.89c0,93.84 -73.31,170.81 -162.95,170.81l-1646.41 0c-89.64,0 -163.02,-76.97 -163.02,-170.81l0 -1189.78c0,-93.91 73.38,-170.81 163.02,-170.81l1646.41 0c89.64,0 162.95,76.9 162.95,170.81l0 1189.78z"/>
  <path class="fil2" d="M2108.26 976.51c-12.14,-317.26 -267.48,-572.6 -584.8,-584.8l0 -54.68c347.41,12.24 627.27,292.06 639.48,639.48l-54.68 0zm-584.8 686.4l0 -54.65c317.32,-12.21 572.66,-267.55 584.8,-584.84l54.68 0c-12.21,347.39 -292.07,627.28 -639.48,639.49zm0 -639.49l537.95 0c-12.1,291.43 -246.49,525.86 -537.95,537.99l0 -537.99zm0 -584.83c291.46,12.1 525.85,246.49 537.95,537.92l-537.95 0 0 -537.92zm-46.85 -46.88c-317.32,12.2 -572.66,267.54 -584.94,584.8l-54.61 0c12.24,-347.42 292.06,-627.24 639.55,-639.48l0 54.68zm0 584.8l-537.99 0c12.1,-291.43 246.53,-525.82 537.99,-537.92l0 537.92zm0 584.9c-291.46,-12.13 -525.89,-246.56 -537.99,-537.99l537.99 0 0 537.99zm0 101.5c-347.49,-12.21 -627.31,-292.1 -639.55,-639.49l54.61 0c12.28,317.29 267.62,572.63 584.94,584.84l0 54.65zm1009.58 -686.4l-276.37 0c-12.24,-373.24 -313.05,-674.09 -686.36,-686.33l0 -55.88 -46.85 0 0 55.88c-373.31,12.24 -674.19,313.09 -686.43,686.33l-276.37 0 0 46.91 276.37 0c12.24,373.24 313.12,674.13 686.43,686.33l0 55.95 46.85 0 0 -55.95c373.31,-12.2 674.12,-313.09 686.36,-686.33l276.37 0 0 -46.91z"/>
  <g style="clip-path:url(#id0)">
   <image id="лого.png" x="938" y="441.96" width="1123.99" height="1116.09" xlink:href="лого эструктура_Images\лого эструктура_ImgID1.png"/>
  </g>
 </g>
</svg>
