<?xml version="1.0" encoding="UTF-8"?>
<!DOCTYPE svg PUBLIC "-//W3C//DTD SVG 1.1//EN" "http://www.w3.org/Graphics/SVG/1.1/DTD/svg11.dtd">
<!-- Creator: CorelDRAW 2018 (64-Bit) -->
<svg xmlns="http://www.w3.org/2000/svg" xml:space="preserve" width="110mm" height="25mm" version="1.1" style="shape-rendering:geometricPrecision; text-rendering:geometricPrecision; image-rendering:optimizeQuality; fill-rule:evenodd; clip-rule:evenodd"
viewBox="0 0 11000 2500"
 xmlns:xlink="http://www.w3.org/1999/xlink">
 <defs>
  <style type="text/css">
   <![CDATA[
    .fil3 {fill:#2B2A29;fill-rule:nonzero}
    .fil1 {fill:#FAB61C;fill-rule:nonzero}
    .fil2 {fill:#5E5181;fill-rule:nonzero}
    .fil0 {fill:#252422;fill-rule:nonzero}
   ]]>
  </style>
    <clipPath id="id0">
     <rect x="1979.77" y="693.61" width="1124" height="1116.1"/>
    </clipPath>
 </defs>
 <g id="Слой_x0020_1">
  <metadata id="CorelCorpID_0Corel-Layer"/>
  <g id="_3126341952512">
   <path class="fil0" d="M3890.3 750.36l-225.74 0 0 -157.55 225.74 0 0 157.55zm0 301.45l-225.74 0 0 -157.44 225.74 0 0 157.44zm0 301.56l-225.74 0 0 -157.45 225.74 0 0 157.45zm0 301.41l-225.74 0 0 -157.37 225.74 0 0 157.37zm0 301.52l-225.74 0 0 -157.45 225.74 0 0 157.45zm-2476.68 -1205.94l-225.71 0 0 -157.55 225.71 0 0 157.55zm0 301.45l-225.71 0 0 -157.44 225.71 0 0 157.44zm0 301.56l-225.71 0 0 -157.45 225.71 0 0 157.45zm0 301.41l-225.71 0 0 -157.37 225.71 0 0 157.37zm0 301.52l-225.71 0 0 -157.45 225.71 0 0 157.45zm2476.68 -1644.58l0 137.02 -225.74 0 0 -137.02 -2250.94 0 0 137.02 -225.71 0 0 -137.02 -94.43 0 0 1879.81 94.43 0 0 -91.23 225.71 0 0 91.23 2250.94 0 0 -91.23 225.74 0 0 91.23 99.73 0 0 -1879.81 -99.73 0z"/>
   <path class="fil1" d="M3527.96 1846.55c0,93.84 -73.31,170.81 -162.95,170.81l-1646.41 0c-89.64,0 -163.02,-76.97 -163.02,-170.81l0 -1189.78c0,-93.91 73.38,-170.81 163.02,-170.81l1646.41 0c89.64,0 162.95,76.9 162.95,170.81l0 1189.78z"/>
   <path class="fil2" d="M3150.03 1228.17c-12.14,-317.26 -267.48,-572.6 -584.8,-584.8l0 -54.68c347.41,12.24 627.27,292.06 639.48,639.48l-54.68 0zm-584.8 686.4l0 -54.65c317.32,-12.21 572.66,-267.55 584.8,-584.84l54.68 0c-12.21,347.39 -292.07,627.28 -639.48,639.49zm0 -639.49l537.95 0c-12.1,291.43 -246.49,525.86 -537.95,537.99l0 -537.99zm0 -584.83c291.46,12.1 525.85,246.49 537.95,537.92l-537.95 0 0 -537.92zm-46.85 -46.88c-317.32,12.2 -572.66,267.54 -584.94,584.8l-54.61 0c12.24,-347.42 292.06,-627.24 639.55,-639.48l0 54.68zm0 584.8l-537.99 0c12.1,-291.43 246.53,-525.82 537.99,-537.92l0 537.92zm0 584.9c-291.46,-12.13 -525.89,-246.56 -537.99,-537.99l537.99 0 0 537.99zm0 101.5c-347.49,-12.21 -627.31,-292.1 -639.55,-639.49l54.61 0c12.28,317.29 267.62,572.63 584.94,584.84l0 54.65zm1009.58 -686.4l-276.37 0c-12.24,-373.24 -313.05,-674.09 -686.36,-686.33l0 -55.88 -46.85 0 0 55.88c-373.31,12.24 -674.19,313.09 -686.43,686.33l-276.37 0 0 46.91 276.37 0c12.24,373.24 313.12,674.13 686.43,686.33l0 55.95 46.85 0 0 -55.95c373.31,-12.2 674.12,-313.09 686.36,-686.33l276.37 0 0 -46.91z"/>
   <path class="fil3" d="M4614.78 460.91c57.48,0 109.18,13.11 155.11,39.31 45.93,26.2 81.85,62.41 107.77,108.62 25.93,46.21 38.89,98.34 38.89,156.38 0,58.04 -12.96,110.17 -38.89,156.38 -25.92,46.21 -61.84,82.41 -107.77,108.62 -45.93,26.2 -97.63,39.3 -155.11,39.3 -50.16,0 -95.66,-8.45 -136.52,-25.36 -40.85,-16.9 -74.8,-41.42 -101.85,-73.54l69.31 -67.62c43.39,46.77 97.77,70.16 163.14,70.16 50.72,0 93.69,-15.5 128.91,-46.49 35.22,-31 56.77,-71.85 64.66,-122.57l-264.57 0 0 -87.06 262.88 0c-9.58,-47.9 -31.7,-86.5 -66.35,-115.81 -34.66,-29.3 -76.5,-43.95 -125.53,-43.95 -65.37,0 -119.75,23.38 -163.14,70.16l-69.31 -67.63c27.05,-32.12 61,-56.63 101.85,-73.54 40.86,-16.9 86.36,-25.36 136.52,-25.36zm696.52 608.61c-59.73,0 -113.69,-13.1 -161.87,-39.3 -48.18,-26.21 -85.94,-62.41 -113.27,-108.62 -27.33,-46.21 -41,-98.34 -41,-156.38 0,-58.04 13.81,-110.17 41.42,-156.38 27.62,-46.21 65.51,-82.42 113.69,-108.62 48.19,-26.2 102.14,-39.31 161.88,-39.31 48.46,0 92.7,8.46 132.71,25.36 40.01,16.91 73.82,41.42 101.43,73.54l-71 66.78c-42.83,-46.21 -95.52,-69.31 -158.07,-69.31 -40.58,0 -76.92,8.87 -109.04,26.62 -32.12,17.75 -57.2,42.41 -75.23,73.97 -18.04,31.55 -27.05,67.34 -27.05,107.35 0,40.01 9.01,75.79 27.05,107.35 18.03,31.56 43.11,56.21 75.23,73.96 32.12,17.75 68.46,26.63 109.04,26.63 62.55,0 115.24,-23.39 158.07,-70.16l71 67.62c-27.61,32.12 -61.56,56.64 -101.86,73.54 -40.29,16.91 -84.66,25.36 -133.13,25.36zm759.92 -507.17l-196.11 0 0 498.72 -109.04 0 0 -498.72 -195.27 0 0 -92.98 500.42 0 0 92.98zm338.11 -92.98c51.28,0 95.94,8.45 133.98,25.36 38.04,16.9 67.2,41.13 87.49,72.69 20.28,31.56 30.43,69.03 30.43,112.42 0,42.83 -10.15,80.17 -30.43,112.01 -20.29,31.83 -49.45,56.21 -87.49,73.11 -38.04,16.91 -82.7,25.36 -133.98,25.36l-133.55 0 0 170.75 -109.89 0 0 -591.7 243.44 0zm-5.07 327.97c47.9,0 84.25,-10.14 109.04,-30.43 24.8,-20.29 37.2,-49.31 37.2,-87.07 0,-37.75 -12.4,-66.77 -37.2,-87.06 -24.79,-20.29 -61.14,-30.43 -109.04,-30.43l-128.48 0 0 234.99 128.48 0zm856.28 -327.97l-256.97 477.59c-22.54,42.26 -49.45,73.96 -80.73,95.09 -31.27,21.13 -65.22,31.7 -101.85,31.7 -29.31,0 -58.33,-6.2 -87.07,-18.6l27.05 -86.22c23.11,7.33 42.27,10.99 57.48,10.99 35.5,0 64.81,-18.31 87.91,-54.94l9.3 -14.37 -235.84 -441.24 117.5 0 174.97 347.41 180.05 -347.41 108.2 0zm294.16 342.34l-109.88 0 0 249.36 -108.2 0 0 -591.7 108.2 0 0 247.67 113.26 0 169.91 -247.67 116.65 0 -202.03 286.55 209.64 305.15 -124.26 0 -173.29 -249.36zm796.27 -249.36l-196.11 0 0 498.72 -109.04 0 0 -498.72 -195.27 0 0 -92.98 500.42 0 0 92.98zm577.33 -92.98l-256.97 477.59c-22.54,42.26 -49.45,73.96 -80.73,95.09 -31.27,21.13 -65.22,31.7 -101.85,31.7 -29.31,0 -58.33,-6.2 -87.07,-18.6l27.05 -86.22c23.11,7.33 42.27,10.99 57.48,10.99 35.5,0 64.81,-18.31 87.91,-54.94l9.3 -14.37 -235.84 -441.24 117.5 0 174.97 347.41 180.05 -347.41 108.2 0zm319.52 0c51.28,0 95.94,8.45 133.98,25.36 38.04,16.9 67.2,41.13 87.49,72.69 20.28,31.56 30.43,69.03 30.43,112.42 0,42.83 -10.15,80.17 -30.43,112.01 -20.29,31.83 -49.45,56.21 -87.49,73.11 -38.04,16.91 -82.7,25.36 -133.98,25.36l-133.55 0 0 170.75 -109.89 0 0 -591.7 243.44 0zm-5.07 327.97c47.9,0 84.25,-10.14 109.04,-30.43 24.8,-20.29 37.2,-49.31 37.2,-87.07 0,-37.75 -12.4,-66.77 -37.2,-87.06 -24.79,-20.29 -61.14,-30.43 -109.04,-30.43l-128.48 0 0 234.99 128.48 0zm723.57 126.79l-295.85 0 -58.32 136.94 -113.27 0 266.26 -591.7 108.2 0 267.11 591.7 -114.96 0 -59.17 -136.94zm-36.34 -86.22l-111.58 -258.66 -110.74 258.66 222.32 0zm-4814.79 893.96c0,77.77 -27.05,139.19 -81.15,184.28 -54.1,45.08 -131.02,69.59 -230.76,73.54l0 62.55 -101.44 0 0 -62.55c-99.74,-5.08 -176.8,-29.87 -231.18,-74.39 -54.38,-44.52 -81.57,-105.66 -81.57,-183.43 0,-77.76 27.19,-139.05 81.57,-183.85 54.38,-44.8 131.44,-69.73 231.18,-74.81l0 -60.01 101.44 0 0 60.01c99.74,5.08 176.66,30.01 230.76,74.81 54.1,44.8 81.15,106.09 81.15,183.85zm-311.91 171.6c67.62,-5.07 118.9,-22.12 153.84,-51.14 34.94,-29.02 52.41,-69.46 52.41,-121.3 0,-51.85 -17.61,-92.14 -52.83,-120.88 -35.22,-28.74 -86.36,-45.36 -153.42,-49.87l0 343.19zm-306.84 -171.6c0,51.28 17.61,91.29 52.83,120.03 35.22,28.74 86.08,45.93 152.57,51.57l0 -343.19c-136.93,10.14 -205.4,67.34 -205.4,171.59zm735.4 -295l108.2 0 0 420.11 317.83 -420.11 102.28 0 0 591.7 -108.2 0 0 -419.26 -317.83 419.26 -102.28 0 0 -591.7zm1193.55 0l0 591.7 -108.2 0 0 -498.72 -233.3 0 -5.07 147.92c-2.81,82.84 -9.58,150.04 -20.28,201.61 -10.71,51.56 -27.9,90.72 -51.57,117.49 -23.66,26.77 -56.35,40.15 -98.05,40.15 -14.65,0 -34.66,-2.81 -60.02,-8.45l7.61 -95.52c7.33,2.26 15.78,3.38 25.36,3.38 34.38,0 58.75,-20.42 73.12,-61.28 14.37,-40.86 23.24,-105.24 26.62,-193.15l8.46 -245.13 435.32 0zm439.56 200.33c71,0 125.52,15.92 163.56,47.76 38.04,31.84 57.06,79.03 57.06,141.59 0,65.36 -20.85,115.38 -62.55,150.03 -41.7,34.66 -100.31,51.99 -175.82,51.99l-254.44 0 0 -591.7 108.2 0 0 200.33 163.99 0zm-22.83 306.84c42.83,0 75.8,-9.86 98.9,-29.58 23.11,-19.73 34.66,-48.47 34.66,-86.22 0,-71.57 -44.52,-107.36 -133.56,-107.36l-141.16 0 0 223.16 141.16 0zm899.39 84.53l-0.85 -392.21 -194.41 324.59 -49.03 0 -194.42 -319.52 0 387.14 -103.97 0 0 -591.7 90.45 0 234.15 391.37 231.6 -391.37 89.61 0 1.69 591.7 -104.82 0z"/>
   <g style="clip-path:url(#id0)">
    <image id="лого.png" x="1979.77" y="693.62" width="1123.99" height="1116.09" xlink:href="лого эструктура1_Images\лого эструктура1_ImgID1.png"/>
   </g>
  </g>
 </g>
</svg>
